<svg xmlns="http://www.w3.org/2000/svg" width="16" height="16"><path d="M8 0C6.35 0 5 1.35 5 3c0 .936.443 1.763 1.12 2.314A6.424 6.424 0 0 0 3.114 7.36L3 7.498V9h1V7.902c.963-1.106 2.213-1.731 3.5-1.867V9h1V6.03c1.13.106 2.241.59 3.166 1.478.117.113.226.236.334.36V9h1V7.49l-.115-.138a6.76 6.76 0 0 0-.526-.567 6.339 6.339 0 0 0-2.472-1.474A2.983 2.983 0 0 0 11 3c0-1.65-1.35-3-3-3zm0 1c1.11 0 2 .89 2 2 0 1.11-.89 2-2 2-1.11 0-2-.89-2-2 0-1.11.89-2 2-2zm-5 9v.965A.5.5 0 0 0 3 11v2a.5.5 0 0 0 .006.09A1.506 1.506 0 0 0 2 14.5c0 .822.677 1.5 1.5 1.5S5 15.322 5 14.5c0-.65-.425-1.204-1.008-1.41A.5.5 0 0 0 4 13v-2h3.5v2a.5.5 0 0 0 .006.09A1.506 1.506 0 0 0 6.5 14.5c0 .822.677 1.5 1.5 1.5s1.5-.678 1.5-1.5c0-.65-.425-1.204-1.008-1.41A.5.5 0 0 0 8.5 13v-2H12v2a.5.5 0 0 0 .006.09A1.506 1.506 0 0 0 11 14.5c0 .822.677 1.5 1.5 1.5s1.5-.678 1.5-1.5c0-.65-.425-1.204-1.008-1.41A.5.5 0 0 0 13 13v-3H3zm.5 4c.282 0 .5.218.5.5 0 .282-.218.5-.5.5a.493.493 0 0 1-.5-.5c0-.282.218-.5.5-.5zM8 14c.282 0 .5.218.5.5 0 .282-.218.5-.5.5a.493.493 0 0 1-.5-.5c0-.282.218-.5.5-.5zm4.5 0c.282 0 .5.218.5.5 0 .282-.218.5-.5.5a.493.493 0 0 1-.5-.5c0-.282.218-.5.5-.5z" color="#000" font-family="sans-serif" font-weight="400" overflow="visible" style="line-height:normal;text-indent:0;text-align:start;text-decoration-line:none;text-decoration-style:solid;text-decoration-color:#000;text-transform:none;block-progression:tb;white-space:normal;isolation:auto;mix-blend-mode:normal;solid-color:#000;solid-opacity:1"/></svg>