<svg xmlns="http://www.w3.org/2000/svg" viewBox="0 0 80 80"><path d="M73 54h-1V16a2 2 0 0 0-2-2H10a2 2 0 0 0-2 2v38H7a2 2 0 0 0-2 2v2c0 4.411 3.589 8 8 8h54c4.411 0 8-3.589 8-8v-2a2 2 0 0 0-2-2zM12 18h56v36H12V18zm55 44H13c-2.206 0-4-1.794-4-4h62c0 2.206-1.794 4-4 4z"/><path d="M46.383 35.337A8.97 8.97 0 0 0 49 29c0-4.963-4.038-9-9-9s-9 4.037-9 9a8.97 8.97 0 0 0 2.617 6.337C27.964 37.807 24 43.447 24 50a2 2 0 0 0 2 2h28a2 2 0 0 0 2-2c0-6.553-3.964-12.192-9.617-14.663zM40 24c2.757 0 5 2.243 5 5s-2.243 5-5 5-5-2.243-5-5 2.243-5 5-5zM28.167 48c.955-5.668 5.897-10 11.833-10s10.878 4.332 11.833 10H28.167z"/></svg>